<svg xmlns="http://www.w3.org/2000/svg" viewBox="0 0 64 64" fill="none">
  <defs>
    <linearGradient id="g" x1="0" y1="0" x2="64" y2="64" gradientUnits="userSpaceOnUse">
      <stop offset="0" stop-color="#3b82f6"/>
      <stop offset="1" stop-color="#4f46e5"/>
    </linearGradient>
    <linearGradient id="shine" x1="0" y1="0" x2="64" y2="64" gradientUnits="userSpaceOnUse">
      <stop offset="0" stop-color="#ffffff" stop-opacity="0.35"/>
      <stop offset="1" stop-color="#ffffff" stop-opacity="0"/>
    </linearGradient>
  </defs>
  <rect x="2" y="2" width="60" height="60" rx="14" fill="url(#g)"/>
  <rect x="2" y="2" width="60" height="60" rx="14" fill="url(#shine)"/>
  <g fill="#ffffff">
    <path d="M19 21.5c0-1.4 1.1-2.5 2.5-2.5h6.6c5.1 0 8.6 3.1 8.6 7.9 0 4.8-3.5 7.9-8.6 7.9h-3.6v8.7c0 1.4-1.1 2.5-2.5 2.5s-2.5-1.1-2.5-2.5V21.5zm5 4.6v4.1h3.6c1.5 0 2.5-0.8 2.5-2 0-1.3-1-2.1-2.5-2.1H24z"/>
    <circle cx="44" cy="22" r="3.2"/>
  </g>
</svg>
